<mxfile host="app.diagrams.net" agent="Mozilla/5.0 (Windows NT 10.0; Win64; x64) AppleWebKit/537.36 (KHTML, like Gecko) Chrome/129.0.0.0 Safari/537.36" version="24.7.17">
  <diagram name="Page-1" id="A_trwUFcFP2Lq6s1Mr3m">
    <mxGraphModel dx="989" dy="532" grid="1" gridSize="10" guides="1" tooltips="1" connect="1" arrows="1" fold="1" page="1" pageScale="1" pageWidth="850" pageHeight="1100" math="0" shadow="0">
      <root>
        <mxCell id="0" />
        <mxCell id="1" parent="0" />
        <mxCell id="n78h8CKKlgvyNYAc2oAb-1" value="Begin" style="strokeWidth=2;html=1;shape=mxgraph.flowchart.terminator;whiteSpace=wrap;" parent="1" vertex="1">
          <mxGeometry x="180" y="60" width="100" height="60" as="geometry" />
        </mxCell>
        <mxCell id="n78h8CKKlgvyNYAc2oAb-2" value="khởi tạo phần cứng (I2C LCD, load cell, buzzer.)" style="rounded=1;whiteSpace=wrap;html=1;absoluteArcSize=1;arcSize=14;strokeWidth=2;" parent="1" vertex="1">
          <mxGeometry x="115" y="170" width="230" height="60" as="geometry" />
        </mxCell>
        <mxCell id="n78h8CKKlgvyNYAc2oAb-4" value="" style="endArrow=classic;html=1;rounded=0;" parent="1" edge="1">
          <mxGeometry width="50" height="50" relative="1" as="geometry">
            <mxPoint x="229.66000000000003" y="120" as="sourcePoint" />
            <mxPoint x="230" y="170" as="targetPoint" />
          </mxGeometry>
        </mxCell>
        <mxCell id="n78h8CKKlgvyNYAc2oAb-5" value="Đọc cân nặng từ loadcell" style="rounded=1;whiteSpace=wrap;html=1;absoluteArcSize=1;arcSize=14;strokeWidth=2;" parent="1" vertex="1">
          <mxGeometry x="180" y="280" width="100" height="50" as="geometry" />
        </mxCell>
        <mxCell id="n78h8CKKlgvyNYAc2oAb-6" value="" style="endArrow=classic;html=1;rounded=0;" parent="1" edge="1">
          <mxGeometry width="50" height="50" relative="1" as="geometry">
            <mxPoint x="229.50000000000003" y="230" as="sourcePoint" />
            <mxPoint x="229.84" y="280" as="targetPoint" />
          </mxGeometry>
        </mxCell>
        <mxCell id="n78h8CKKlgvyNYAc2oAb-7" value="&lt;font style=&quot;font-size: 10px;&quot;&gt;cân nặng có thay đổi&amp;nbsp;&lt;/font&gt;&lt;div&gt;&lt;font style=&quot;font-size: 10px;&quot;&gt;nhiều hơn 5g &lt;/font&gt;&lt;/div&gt;" style="strokeWidth=2;html=1;shape=mxgraph.flowchart.decision;whiteSpace=wrap;" parent="1" vertex="1">
          <mxGeometry x="160" y="380" width="140" height="100" as="geometry" />
        </mxCell>
        <mxCell id="n78h8CKKlgvyNYAc2oAb-8" value="" style="endArrow=classic;html=1;rounded=0;" parent="1" edge="1">
          <mxGeometry width="50" height="50" relative="1" as="geometry">
            <mxPoint x="229.50000000000003" y="330" as="sourcePoint" />
            <mxPoint x="229.84" y="380" as="targetPoint" />
          </mxGeometry>
        </mxCell>
        <mxCell id="n78h8CKKlgvyNYAc2oAb-9" value="" style="endArrow=none;html=1;rounded=0;" parent="1" edge="1">
          <mxGeometry width="50" height="50" relative="1" as="geometry">
            <mxPoint x="300" y="429.5" as="sourcePoint" />
            <mxPoint x="700" y="430" as="targetPoint" />
          </mxGeometry>
        </mxCell>
        <mxCell id="n78h8CKKlgvyNYAc2oAb-13" value="True" style="text;strokeColor=none;align=center;fillColor=none;html=1;verticalAlign=middle;whiteSpace=wrap;rounded=0;" parent="1" vertex="1">
          <mxGeometry x="300" y="440" width="60" height="30" as="geometry" />
        </mxCell>
        <mxCell id="n78h8CKKlgvyNYAc2oAb-14" value="False" style="text;strokeColor=none;align=center;fillColor=none;html=1;verticalAlign=middle;whiteSpace=wrap;rounded=0;" parent="1" vertex="1">
          <mxGeometry x="180" y="480" width="60" height="30" as="geometry" />
        </mxCell>
        <mxCell id="n78h8CKKlgvyNYAc2oAb-15" value="" style="endArrow=none;html=1;rounded=0;" parent="1" edge="1">
          <mxGeometry width="50" height="50" relative="1" as="geometry">
            <mxPoint x="229.84" y="530" as="sourcePoint" />
            <mxPoint x="229.50000000000003" y="480" as="targetPoint" />
          </mxGeometry>
        </mxCell>
        <mxCell id="n78h8CKKlgvyNYAc2oAb-16" value="Cập nhật lại giá trị cân nặng, reset trạng thái buzzer và trạng thái nhấp nháy." style="rounded=1;whiteSpace=wrap;html=1;absoluteArcSize=1;arcSize=14;strokeWidth=2;" parent="1" vertex="1">
          <mxGeometry x="610" y="470" width="170" height="100" as="geometry" />
        </mxCell>
        <mxCell id="n78h8CKKlgvyNYAc2oAb-17" value="" style="endArrow=classic;html=1;rounded=0;" parent="1" edge="1">
          <mxGeometry width="50" height="50" relative="1" as="geometry">
            <mxPoint x="700.0000000000001" y="430" as="sourcePoint" />
            <mxPoint x="700.0000000000001" y="470" as="targetPoint" />
          </mxGeometry>
        </mxCell>
        <mxCell id="n78h8CKKlgvyNYAc2oAb-18" value="" style="endArrow=classic;html=1;rounded=0;" parent="1" edge="1">
          <mxGeometry width="50" height="50" relative="1" as="geometry">
            <mxPoint x="229.5" y="520" as="sourcePoint" />
            <mxPoint x="229.5" y="560" as="targetPoint" />
          </mxGeometry>
        </mxCell>
        <mxCell id="n78h8CKKlgvyNYAc2oAb-19" value="&lt;font style=&quot;font-size: 10px;&quot;&gt;Kiểm tra cân nặng đã ổn&lt;/font&gt;&lt;div&gt;&lt;font style=&quot;font-size: 10px;&quot;&gt;&amp;nbsp;định hơn 1 giây&lt;/font&gt;&lt;/div&gt;" style="strokeWidth=2;html=1;shape=mxgraph.flowchart.decision;whiteSpace=wrap;" parent="1" vertex="1">
          <mxGeometry x="155" y="560" width="150" height="100" as="geometry" />
        </mxCell>
        <mxCell id="n78h8CKKlgvyNYAc2oAb-21" value="" style="endArrow=classic;html=1;rounded=0;exitX=0;exitY=0.5;exitDx=0;exitDy=0;" parent="1" source="n78h8CKKlgvyNYAc2oAb-16" edge="1">
          <mxGeometry width="50" height="50" relative="1" as="geometry">
            <mxPoint x="440" y="560" as="sourcePoint" />
            <mxPoint x="230" y="520" as="targetPoint" />
          </mxGeometry>
        </mxCell>
        <mxCell id="n78h8CKKlgvyNYAc2oAb-22" value="" style="endArrow=classic;html=1;rounded=0;" parent="1" edge="1">
          <mxGeometry width="50" height="50" relative="1" as="geometry">
            <mxPoint x="448.99999999999994" y="610" as="sourcePoint" />
            <mxPoint x="448.99999999999994" y="660" as="targetPoint" />
          </mxGeometry>
        </mxCell>
        <mxCell id="n78h8CKKlgvyNYAc2oAb-23" value="" style="endArrow=none;html=1;rounded=0;" parent="1" edge="1">
          <mxGeometry width="50" height="50" relative="1" as="geometry">
            <mxPoint x="305" y="609.5" as="sourcePoint" />
            <mxPoint x="450" y="609.84" as="targetPoint" />
          </mxGeometry>
        </mxCell>
        <mxCell id="n78h8CKKlgvyNYAc2oAb-26" value="&lt;div style=&quot;background-color: rgb(255, 255, 254); font-family: Consolas, &amp;quot;Courier New&amp;quot;, monospace; font-size: 10px; line-height: 19px; white-space: pre;&quot;&gt;weight_value&amp;lt; MAX_WEIGHT&lt;/div&gt;" style="strokeWidth=2;html=1;shape=mxgraph.flowchart.decision;whiteSpace=wrap;" parent="1" vertex="1">
          <mxGeometry x="370" y="660" width="160" height="100" as="geometry" />
        </mxCell>
        <mxCell id="n78h8CKKlgvyNYAc2oAb-27" value="" style="endArrow=none;html=1;rounded=0;" parent="1" edge="1">
          <mxGeometry width="50" height="50" relative="1" as="geometry">
            <mxPoint x="530" y="709.5" as="sourcePoint" />
            <mxPoint x="610" y="709.84" as="targetPoint" />
          </mxGeometry>
        </mxCell>
        <mxCell id="n78h8CKKlgvyNYAc2oAb-29" value="&lt;li&gt;Hiển thị &quot;OK&quot; trên LCD.&lt;/li&gt;&lt;li&gt;Nếu chưa phát buzzer, phát một tiếng beep dài 1 giây.&lt;/li&gt;&lt;li&gt;Dừng nhấp nháy LCD.&lt;/li&gt;" style="rounded=1;whiteSpace=wrap;html=1;absoluteArcSize=1;arcSize=14;strokeWidth=2;" parent="1" vertex="1">
          <mxGeometry x="610" y="665" width="210" height="95" as="geometry" />
        </mxCell>
        <mxCell id="n78h8CKKlgvyNYAc2oAb-31" value="True" style="text;strokeColor=none;align=center;fillColor=none;html=1;verticalAlign=middle;whiteSpace=wrap;rounded=0;" parent="1" vertex="1">
          <mxGeometry x="305" y="670" width="60" height="30" as="geometry" />
        </mxCell>
        <mxCell id="n78h8CKKlgvyNYAc2oAb-32" value="False" style="text;strokeColor=none;align=center;fillColor=none;html=1;verticalAlign=middle;whiteSpace=wrap;rounded=0;" parent="1" vertex="1">
          <mxGeometry x="180" y="760" width="60" height="30" as="geometry" />
        </mxCell>
        <mxCell id="n78h8CKKlgvyNYAc2oAb-35" value="" style="endArrow=none;html=1;rounded=0;" parent="1" edge="1">
          <mxGeometry width="50" height="50" relative="1" as="geometry">
            <mxPoint x="720.34" y="760" as="sourcePoint" />
            <mxPoint x="720" y="920" as="targetPoint" />
          </mxGeometry>
        </mxCell>
        <mxCell id="n78h8CKKlgvyNYAc2oAb-38" value="False" style="text;strokeColor=none;align=center;fillColor=none;html=1;verticalAlign=middle;whiteSpace=wrap;rounded=0;" parent="1" vertex="1">
          <mxGeometry x="395" y="760" width="60" height="30" as="geometry" />
        </mxCell>
        <mxCell id="n78h8CKKlgvyNYAc2oAb-39" value="" style="endArrow=none;html=1;rounded=0;" parent="1" edge="1">
          <mxGeometry width="50" height="50" relative="1" as="geometry">
            <mxPoint x="229.5" y="920" as="sourcePoint" />
            <mxPoint x="229.5" y="660" as="targetPoint" />
          </mxGeometry>
        </mxCell>
        <mxCell id="n78h8CKKlgvyNYAc2oAb-40" value="&lt;li&gt;Hiển thị &quot;Over weight&quot; trên LCD.&lt;/li&gt;&lt;li&gt;Phát hai tiếng beep ngắn, cách nhau 1 giây.&lt;/li&gt;&lt;li&gt;Bắt đầu nhấp nháy LCD.&lt;/li&gt;" style="rounded=1;whiteSpace=wrap;html=1;absoluteArcSize=1;arcSize=14;strokeWidth=2;" parent="1" vertex="1">
          <mxGeometry x="320" y="800" width="260" height="70" as="geometry" />
        </mxCell>
        <mxCell id="n78h8CKKlgvyNYAc2oAb-41" value="" style="endArrow=classic;html=1;rounded=0;" parent="1" edge="1">
          <mxGeometry width="50" height="50" relative="1" as="geometry">
            <mxPoint x="449.50000000000006" y="760" as="sourcePoint" />
            <mxPoint x="449.84" y="800" as="targetPoint" />
          </mxGeometry>
        </mxCell>
        <mxCell id="n78h8CKKlgvyNYAc2oAb-42" value="True" style="text;strokeColor=none;align=center;fillColor=none;html=1;verticalAlign=middle;whiteSpace=wrap;rounded=0;" parent="1" vertex="1">
          <mxGeometry x="530" y="670" width="60" height="30" as="geometry" />
        </mxCell>
        <mxCell id="n78h8CKKlgvyNYAc2oAb-44" value="" style="endArrow=none;html=1;rounded=0;" parent="1" edge="1">
          <mxGeometry width="50" height="50" relative="1" as="geometry">
            <mxPoint x="230" y="920" as="sourcePoint" />
            <mxPoint x="720" y="920" as="targetPoint" />
          </mxGeometry>
        </mxCell>
        <mxCell id="n78h8CKKlgvyNYAc2oAb-45" value="" style="endArrow=none;html=1;rounded=0;" parent="1" edge="1">
          <mxGeometry width="50" height="50" relative="1" as="geometry">
            <mxPoint x="449.5" y="870" as="sourcePoint" />
            <mxPoint x="450" y="920" as="targetPoint" />
          </mxGeometry>
        </mxCell>
        <mxCell id="n78h8CKKlgvyNYAc2oAb-46" value="" style="endArrow=none;html=1;rounded=0;" parent="1" edge="1">
          <mxGeometry width="50" height="50" relative="1" as="geometry">
            <mxPoint x="130" y="920" as="sourcePoint" />
            <mxPoint x="235" y="920" as="targetPoint" />
          </mxGeometry>
        </mxCell>
        <mxCell id="n78h8CKKlgvyNYAc2oAb-47" value="" style="endArrow=none;html=1;rounded=0;" parent="1" edge="1">
          <mxGeometry width="50" height="50" relative="1" as="geometry">
            <mxPoint x="130" y="920" as="sourcePoint" />
            <mxPoint x="130" y="260" as="targetPoint" />
          </mxGeometry>
        </mxCell>
        <mxCell id="n78h8CKKlgvyNYAc2oAb-48" value="" style="endArrow=classic;html=1;rounded=0;" parent="1" edge="1">
          <mxGeometry width="50" height="50" relative="1" as="geometry">
            <mxPoint x="130" y="260" as="sourcePoint" />
            <mxPoint x="230" y="260" as="targetPoint" />
          </mxGeometry>
        </mxCell>
      </root>
    </mxGraphModel>
  </diagram>
</mxfile>
